<svg xmlns="http://www.w3.org/2000/svg" width="880" height="652" viewBox="0 0 880 652">
<defs><style>text{font-family:Arial,Helvetica,sans-serif}.lab{font-size:11px;fill:#111}.num{font-size:13px;font-weight:700}.small{font-size:12px;fill:#555}.comp{font-size:11px;fill:#555}</style></defs>
<rect x="0" y="0" width="880" height="652" fill="#fff"/>
<text class="lab" x="160" y="74" text-anchor="middle">SENT</text>
<text class="comp" x="160" y="87" text-anchor="middle">Balancing</text>
<text class="lab" x="248" y="74" text-anchor="middle">POSS-ACC</text>
<text class="comp" x="248" y="87" text-anchor="middle">Balancing</text>
<text class="lab" x="336" y="74" text-anchor="middle">ERG-POSS</text>
<text class="comp" x="336" y="87" text-anchor="middle">Balancing</text>
<text class="lab" x="424" y="74" text-anchor="middle">NOMN</text>
<text class="comp" x="424" y="87" text-anchor="middle">Balancing</text>
<text class="lab" x="512" y="74" text-anchor="middle">SENT</text>
<text class="comp" x="512" y="87" text-anchor="middle">Deranking</text>
<text class="lab" x="600" y="74" text-anchor="middle">POSS-ACC</text>
<text class="comp" x="600" y="87" text-anchor="middle">Deranking</text>
<text class="lab" x="688" y="74" text-anchor="middle">ERG-POSS</text>
<text class="comp" x="688" y="87" text-anchor="middle">Deranking</text>
<text class="lab" x="776" y="74" text-anchor="middle">NOMN</text>
<text class="comp" x="776" y="87" text-anchor="middle">Deranking</text>
<text class="lab" x="104" y="107.96" text-anchor="end">SOV/GN</text>
<text class="lab" x="104" y="126.44" text-anchor="end">NOM-ACC</text>
<rect x="116" y="92" width="88" height="42" fill="#9fc6ad" stroke="#fff" stroke-width="1.2"/>
<text class="num" x="160" y="118.04" text-anchor="middle" fill="#111">82.8</text>
<rect x="122.5" y="128.5" width="13.4118" height="3" rx="1.5" fill="#d95f02" opacity="0.82"/>
<rect x="204" y="92" width="88" height="42" fill="#78af8b" stroke="#fff" stroke-width="1.2"/>
<text class="num" x="248" y="118.04" text-anchor="middle" fill="#fff">88.0</text>
<rect x="210.5" y="128.5" width="11.1176" height="3" rx="1.5" fill="#d95f02" opacity="0.82"/>
<rect x="292" y="92" width="88" height="42" fill="#78af8b" stroke="#fff" stroke-width="1.2"/>
<text class="num" x="336" y="118.04" text-anchor="middle" fill="#fff">88.1</text>
<rect x="298.5" y="128.5" width="8.97794" height="3" rx="1.5" fill="#d95f02" opacity="0.82"/>
<rect x="380" y="92" width="88" height="42" fill="#6da881" stroke="#fff" stroke-width="1.2"/>
<text class="num" x="424" y="118.04" text-anchor="middle" fill="#fff">89.5</text>
<rect x="386.5" y="128.5" width="8.91176" height="3" rx="1.5" fill="#d95f02" opacity="0.82"/>
<rect x="468" y="92" width="88" height="42" fill="#92bea1" stroke="#fff" stroke-width="1.2"/>
<text class="num" x="512" y="118.04" text-anchor="middle" fill="#111">84.6</text>
<rect x="474.5" y="128.5" width="13.6103" height="3" rx="1.5" fill="#d95f02" opacity="0.82"/>
<rect x="556" y="92" width="88" height="42" fill="#6da881" stroke="#fff" stroke-width="1.2"/>
<text class="num" x="600" y="118.04" text-anchor="middle" fill="#fff">89.6</text>
<rect x="562.5" y="128.5" width="8.82353" height="3" rx="1.5" fill="#d95f02" opacity="0.82"/>
<rect x="644" y="92" width="88" height="42" fill="#70aa84" stroke="#fff" stroke-width="1.2"/>
<text class="num" x="688" y="118.04" text-anchor="middle" fill="#fff">89.1</text>
<rect x="650.5" y="128.5" width="6.68382" height="3" rx="1.5" fill="#d95f02" opacity="0.82"/>
<rect x="732" y="92" width="88" height="42" fill="#60a176" stroke="#fff" stroke-width="1.2"/>
<text class="num" x="776" y="118.04" text-anchor="middle" fill="#fff">91.3</text>
<rect x="738.5" y="128.5" width="6.61765" height="3" rx="1.5" fill="#d95f02" opacity="0.82"/>
<text class="lab" x="104" y="149.96" text-anchor="end">SOV/NG</text>
<text class="lab" x="104" y="168.44" text-anchor="end">NOM-ACC</text>
<rect x="116" y="134" width="88" height="42" fill="#b6d4c0" stroke="#fff" stroke-width="1.2"/>
<text class="num" x="160" y="160.04" text-anchor="middle" fill="#111">79.8</text>
<rect x="122.5" y="170.5" width="23.3824" height="3" rx="1.5" fill="#d95f02" opacity="0.82"/>
<rect x="204" y="134" width="88" height="42" fill="#8fbc9e" stroke="#fff" stroke-width="1.2"/>
<text class="num" x="248" y="160.04" text-anchor="middle" fill="#111">85.0</text>
<rect x="210.5" y="170.5" width="18.5735" height="3" rx="1.5" fill="#d95f02" opacity="0.82"/>
<rect x="292" y="134" width="88" height="42" fill="#77ae8a" stroke="#fff" stroke-width="1.2"/>
<text class="num" x="336" y="160.04" text-anchor="middle" fill="#fff">88.2</text>
<rect x="298.5" y="170.5" width="18.6176" height="3" rx="1.5" fill="#d95f02" opacity="0.82"/>
<rect x="380" y="134" width="88" height="42" fill="#77ae8a" stroke="#fff" stroke-width="1.2"/>
<text class="num" x="424" y="160.04" text-anchor="middle" fill="#fff">88.2</text>
<rect x="386.5" y="170.5" width="14.1618" height="3" rx="1.5" fill="#d95f02" opacity="0.82"/>
<rect x="468" y="134" width="88" height="42" fill="#9ec5ab" stroke="#fff" stroke-width="1.2"/>
<text class="num" x="512" y="160.04" text-anchor="middle" fill="#111">83.0</text>
<rect x="474.5" y="170.5" width="25.7647" height="3" rx="1.5" fill="#d95f02" opacity="0.82"/>
<rect x="556" y="134" width="88" height="42" fill="#86b797" stroke="#fff" stroke-width="1.2"/>
<text class="num" x="600" y="160.04" text-anchor="middle" fill="#fff">86.1</text>
<rect x="562.5" y="170.5" width="18.4853" height="3" rx="1.5" fill="#d95f02" opacity="0.82"/>
<rect x="644" y="134" width="88" height="42" fill="#6ca880" stroke="#fff" stroke-width="1.2"/>
<text class="num" x="688" y="160.04" text-anchor="middle" fill="#fff">89.7</text>
<rect x="650.5" y="170.5" width="16.3456" height="3" rx="1.5" fill="#d95f02" opacity="0.82"/>
<rect x="732" y="134" width="88" height="42" fill="#73ac86" stroke="#fff" stroke-width="1.2"/>
<text class="num" x="776" y="160.04" text-anchor="middle" fill="#fff">88.8</text>
<rect x="738.5" y="170.5" width="14.0735" height="3" rx="1.5" fill="#d95f02" opacity="0.82"/>
<text class="lab" x="104" y="191.96" text-anchor="end">SVO/GN</text>
<text class="lab" x="104" y="210.44" text-anchor="end">NOM-ACC</text>
<rect x="116" y="176" width="88" height="42" fill="#72ab86" stroke="#fff" stroke-width="1.2"/>
<text class="num" x="160" y="202.04" text-anchor="middle" fill="#fff">88.9</text>
<rect x="122.5" y="212.5" width="8.77941" height="3" rx="1.5" fill="#d95f02" opacity="0.82"/>
<rect x="204" y="176" width="88" height="42" fill="#44905e" stroke="#fff" stroke-width="1.2"/>
<text class="num" x="248" y="202.04" text-anchor="middle" fill="#fff">95.0</text>
<rect x="210.5" y="212.5" width="8.18382" height="3" rx="1.5" fill="#d95f02" opacity="0.82"/>
<rect x="292" y="176" width="88" height="42" fill="#3d8c58" stroke="#fff" stroke-width="1.2"/>
<text class="num" x="336" y="202.04" text-anchor="middle" fill="#fff">96.0</text>
<rect x="298.5" y="212.5" width="7.76471" height="3" rx="1.5" fill="#d95f02" opacity="0.82"/>
<rect x="380" y="176" width="88" height="42" fill="#3f8d59" stroke="#fff" stroke-width="1.2"/>
<text class="num" x="424" y="202.04" text-anchor="middle" fill="#fff">95.7</text>
<rect x="386.5" y="212.5" width="7.76471" height="3" rx="1.5" fill="#d95f02" opacity="0.82"/>
<rect x="468" y="176" width="88" height="42" fill="#6da881" stroke="#fff" stroke-width="1.2"/>
<text class="num" x="512" y="202.04" text-anchor="middle" fill="#fff">89.6</text>
<rect x="474.5" y="212.5" width="7.10294" height="3" rx="1.5" fill="#d95f02" opacity="0.82"/>
<rect x="556" y="176" width="88" height="42" fill="#489261" stroke="#fff" stroke-width="1.2"/>
<text class="num" x="600" y="202.04" text-anchor="middle" fill="#fff">94.5</text>
<rect x="562.5" y="212.5" width="5.97794" height="3" rx="1.5" fill="#d95f02" opacity="0.82"/>
<rect x="644" y="176" width="88" height="42" fill="#479261" stroke="#fff" stroke-width="1.2"/>
<text class="num" x="688" y="202.04" text-anchor="middle" fill="#fff">94.6</text>
<rect x="650.5" y="212.5" width="7.76471" height="3" rx="1.5" fill="#d95f02" opacity="0.82"/>
<rect x="732" y="176" width="88" height="42" fill="#489262" stroke="#fff" stroke-width="1.2"/>
<text class="num" x="776" y="202.04" text-anchor="middle" fill="#fff">94.5</text>
<rect x="738.5" y="212.5" width="5.55882" height="3" rx="1.5" fill="#d95f02" opacity="0.82"/>
<text class="lab" x="104" y="233.96" text-anchor="end">SVO/NG</text>
<text class="lab" x="104" y="252.44" text-anchor="end">NOM-ACC</text>
<rect x="116" y="218" width="88" height="42" fill="#5d9f74" stroke="#fff" stroke-width="1.2"/>
<text class="num" x="160" y="244.04" text-anchor="middle" fill="#fff">91.6</text>
<rect x="122.5" y="254.5" width="9.26471" height="3" rx="1.5" fill="#d95f02" opacity="0.82"/>
<rect x="204" y="218" width="88" height="42" fill="#479260" stroke="#fff" stroke-width="1.2"/>
<text class="num" x="248" y="244.04" text-anchor="middle" fill="#fff">94.7</text>
<rect x="210.5" y="254.5" width="7.74265" height="3" rx="1.5" fill="#d95f02" opacity="0.82"/>
<rect x="292" y="218" width="88" height="42" fill="#378853" stroke="#fff" stroke-width="1.2"/>
<text class="num" x="336" y="244.04" text-anchor="middle" fill="#fff">96.8</text>
<rect x="298.5" y="254.5" width="5.60294" height="3" rx="1.5" fill="#d95f02" opacity="0.82"/>
<rect x="380" y="218" width="88" height="42" fill="#388953" stroke="#fff" stroke-width="1.2"/>
<text class="num" x="424" y="244.04" text-anchor="middle" fill="#fff">96.7</text>
<rect x="386.5" y="254.5" width="5.53676" height="3" rx="1.5" fill="#d95f02" opacity="0.82"/>
<rect x="468" y="218" width="88" height="42" fill="#61a177" stroke="#fff" stroke-width="1.2"/>
<text class="num" x="512" y="244.04" text-anchor="middle" fill="#fff">91.2</text>
<rect x="474.5" y="254.5" width="7.56618" height="3" rx="1.5" fill="#d95f02" opacity="0.82"/>
<rect x="556" y="218" width="88" height="42" fill="#4d9566" stroke="#fff" stroke-width="1.2"/>
<text class="num" x="600" y="244.04" text-anchor="middle" fill="#fff">93.8</text>
<rect x="562.5" y="254.5" width="7.74265" height="3" rx="1.5" fill="#d95f02" opacity="0.82"/>
<rect x="644" y="218" width="88" height="42" fill="#418e5b" stroke="#fff" stroke-width="1.2"/>
<text class="num" x="688" y="244.04" text-anchor="middle" fill="#fff">95.5</text>
<rect x="650.5" y="254.5" width="5.60294" height="3" rx="1.5" fill="#d95f02" opacity="0.82"/>
<rect x="732" y="218" width="88" height="42" fill="#3e8d59" stroke="#fff" stroke-width="1.2"/>
<text class="num" x="776" y="244.04" text-anchor="middle" fill="#fff">95.8</text>
<rect x="738.5" y="254.5" width="5.53676" height="3" rx="1.5" fill="#d95f02" opacity="0.82"/>
<text class="lab" x="104" y="275.96" text-anchor="end">VOS/GN</text>
<text class="lab" x="104" y="294.44" text-anchor="end">NOM-ACC</text>
<rect x="116" y="260" width="88" height="42" fill="#c3dbcb" stroke="#fff" stroke-width="1.2"/>
<text class="num" x="160" y="286.04" text-anchor="middle" fill="#111">78.0</text>
<rect x="122.5" y="296.5" width="23.3824" height="3" rx="1.5" fill="#d95f02" opacity="0.82"/>
<rect x="204" y="260" width="88" height="42" fill="#95c0a3" stroke="#fff" stroke-width="1.2"/>
<text class="num" x="248" y="286.04" text-anchor="middle" fill="#111">84.2</text>
<rect x="210.5" y="296.5" width="18.5735" height="3" rx="1.5" fill="#d95f02" opacity="0.82"/>
<rect x="292" y="260" width="88" height="42" fill="#67a57c" stroke="#fff" stroke-width="1.2"/>
<text class="num" x="336" y="286.04" text-anchor="middle" fill="#fff">90.3</text>
<rect x="298.5" y="296.5" width="18.6176" height="3" rx="1.5" fill="#d95f02" opacity="0.82"/>
<rect x="380" y="260" width="88" height="42" fill="#7bb18d" stroke="#fff" stroke-width="1.2"/>
<text class="num" x="424" y="286.04" text-anchor="middle" fill="#fff">87.7</text>
<rect x="386.5" y="296.5" width="14.1618" height="3" rx="1.5" fill="#d95f02" opacity="0.82"/>
<rect x="468" y="260" width="88" height="42" fill="#97c1a5" stroke="#fff" stroke-width="1.2"/>
<text class="num" x="512" y="286.04" text-anchor="middle" fill="#111">84.0</text>
<rect x="474.5" y="296.5" width="25.7647" height="3" rx="1.5" fill="#d95f02" opacity="0.82"/>
<rect x="556" y="260" width="88" height="42" fill="#77ae89" stroke="#fff" stroke-width="1.2"/>
<text class="num" x="600" y="286.04" text-anchor="middle" fill="#fff">88.3</text>
<rect x="562.5" y="296.5" width="18.4853" height="3" rx="1.5" fill="#d95f02" opacity="0.82"/>
<rect x="644" y="260" width="88" height="42" fill="#5a9d71" stroke="#fff" stroke-width="1.2"/>
<text class="num" x="688" y="286.04" text-anchor="middle" fill="#fff">92.1</text>
<rect x="650.5" y="296.5" width="16.3456" height="3" rx="1.5" fill="#d95f02" opacity="0.82"/>
<rect x="732" y="260" width="88" height="42" fill="#6da881" stroke="#fff" stroke-width="1.2"/>
<text class="num" x="776" y="286.04" text-anchor="middle" fill="#fff">89.6</text>
<rect x="738.5" y="296.5" width="14.0735" height="3" rx="1.5" fill="#d95f02" opacity="0.82"/>
<text class="lab" x="104" y="317.96" text-anchor="end">VOS/NG</text>
<text class="lab" x="104" y="336.44" text-anchor="end">NOM-ACC</text>
<rect x="116" y="302" width="88" height="42" fill="#cfe2d5" stroke="#fff" stroke-width="1.2"/>
<text class="num" x="160" y="328.04" text-anchor="middle" fill="#111">76.5</text>
<rect x="122.5" y="338.5" width="13.4118" height="3" rx="1.5" fill="#d95f02" opacity="0.82"/>
<rect x="204" y="302" width="88" height="42" fill="#a0c7ae" stroke="#fff" stroke-width="1.2"/>
<text class="num" x="248" y="328.04" text-anchor="middle" fill="#111">82.7</text>
<rect x="210.5" y="338.5" width="11.1176" height="3" rx="1.5" fill="#d95f02" opacity="0.82"/>
<rect x="292" y="302" width="88" height="42" fill="#86b797" stroke="#fff" stroke-width="1.2"/>
<text class="num" x="336" y="328.04" text-anchor="middle" fill="#fff">86.2</text>
<rect x="298.5" y="338.5" width="8.97794" height="3" rx="1.5" fill="#d95f02" opacity="0.82"/>
<rect x="380" y="302" width="88" height="42" fill="#88b898" stroke="#fff" stroke-width="1.2"/>
<text class="num" x="424" y="328.04" text-anchor="middle" fill="#fff">86.0</text>
<rect x="386.5" y="338.5" width="8.91176" height="3" rx="1.5" fill="#d95f02" opacity="0.82"/>
<rect x="468" y="302" width="88" height="42" fill="#99c2a7" stroke="#fff" stroke-width="1.2"/>
<text class="num" x="512" y="328.04" text-anchor="middle" fill="#111">83.7</text>
<rect x="474.5" y="338.5" width="13.6103" height="3" rx="1.5" fill="#d95f02" opacity="0.82"/>
<rect x="556" y="302" width="88" height="42" fill="#6ba77f" stroke="#fff" stroke-width="1.2"/>
<text class="num" x="600" y="328.04" text-anchor="middle" fill="#fff">89.8</text>
<rect x="562.5" y="338.5" width="8.82353" height="3" rx="1.5" fill="#d95f02" opacity="0.82"/>
<rect x="644" y="302" width="88" height="42" fill="#6ea982" stroke="#fff" stroke-width="1.2"/>
<text class="num" x="688" y="328.04" text-anchor="middle" fill="#fff">89.4</text>
<rect x="650.5" y="338.5" width="6.68382" height="3" rx="1.5" fill="#d95f02" opacity="0.82"/>
<rect x="732" y="302" width="88" height="42" fill="#65a47b" stroke="#fff" stroke-width="1.2"/>
<text class="num" x="776" y="328.04" text-anchor="middle" fill="#fff">90.6</text>
<rect x="738.5" y="338.5" width="6.61765" height="3" rx="1.5" fill="#d95f02" opacity="0.82"/>
<text class="lab" x="104" y="359.96" text-anchor="end">SOV/GN</text>
<text class="lab" x="104" y="378.44" text-anchor="end">ERG-ABS</text>
<rect x="116" y="344" width="88" height="42" fill="#95c0a4" stroke="#fff" stroke-width="1.2"/>
<text class="num" x="160" y="370.04" text-anchor="middle" fill="#111">84.2</text>
<rect x="122.5" y="380.5" width="22.6765" height="3" rx="1.5" fill="#d95f02" opacity="0.82"/>
<rect x="204" y="344" width="88" height="42" fill="#9ac3a8" stroke="#fff" stroke-width="1.2"/>
<text class="num" x="248" y="370.04" text-anchor="middle" fill="#111">83.6</text>
<rect x="210.5" y="380.5" width="22.6103" height="3" rx="1.5" fill="#d95f02" opacity="0.82"/>
<rect x="292" y="344" width="88" height="42" fill="#89b99a" stroke="#fff" stroke-width="1.2"/>
<text class="num" x="336" y="370.04" text-anchor="middle" fill="#111">85.8</text>
<rect x="298.5" y="380.5" width="15.1985" height="3" rx="1.5" fill="#d95f02" opacity="0.82"/>
<rect x="380" y="344" width="88" height="42" fill="#7cb28f" stroke="#fff" stroke-width="1.2"/>
<text class="num" x="424" y="370.04" text-anchor="middle" fill="#fff">87.5</text>
<rect x="386.5" y="380.5" width="17.0956" height="3" rx="1.5" fill="#d95f02" opacity="0.82"/>
<rect x="468" y="344" width="88" height="42" fill="#65a47a" stroke="#fff" stroke-width="1.2"/>
<text class="num" x="512" y="370.04" text-anchor="middle" fill="#fff">90.6</text>
<rect x="474.5" y="380.5" width="17.5809" height="3" rx="1.5" fill="#d95f02" opacity="0.82"/>
<rect x="556" y="344" width="88" height="42" fill="#87b897" stroke="#fff" stroke-width="1.2"/>
<text class="num" x="600" y="370.04" text-anchor="middle" fill="#fff">86.1</text>
<rect x="562.5" y="380.5" width="22.2794" height="3" rx="1.5" fill="#d95f02" opacity="0.82"/>
<rect x="644" y="344" width="88" height="42" fill="#7fb391" stroke="#fff" stroke-width="1.2"/>
<text class="num" x="688" y="370.04" text-anchor="middle" fill="#fff">87.2</text>
<rect x="650.5" y="380.5" width="15.7941" height="3" rx="1.5" fill="#d95f02" opacity="0.82"/>
<rect x="732" y="344" width="88" height="42" fill="#74ad87" stroke="#fff" stroke-width="1.2"/>
<text class="num" x="776" y="370.04" text-anchor="middle" fill="#fff">88.6</text>
<rect x="738.5" y="380.5" width="19.5662" height="3" rx="1.5" fill="#d95f02" opacity="0.82"/>
<text class="lab" x="104" y="401.96" text-anchor="end">SOV/NG</text>
<text class="lab" x="104" y="420.44" text-anchor="end">ERG-ABS</text>
<rect x="116" y="386" width="88" height="42" fill="#b8d5c2" stroke="#fff" stroke-width="1.2"/>
<text class="num" x="160" y="412.04" text-anchor="middle" fill="#111">79.5</text>
<rect x="122.5" y="422.5" width="26.0294" height="3" rx="1.5" fill="#d95f02" opacity="0.82"/>
<rect x="204" y="386" width="88" height="42" fill="#aacdb6" stroke="#fff" stroke-width="1.2"/>
<text class="num" x="248" y="412.04" text-anchor="middle" fill="#111">81.4</text>
<rect x="210.5" y="422.5" width="22.7868" height="3" rx="1.5" fill="#d95f02" opacity="0.82"/>
<rect x="292" y="386" width="88" height="42" fill="#aecfba" stroke="#fff" stroke-width="1.2"/>
<text class="num" x="336" y="412.04" text-anchor="middle" fill="#111">80.8</text>
<rect x="298.5" y="422.5" width="14.4926" height="3" rx="1.5" fill="#d95f02" opacity="0.82"/>
<rect x="380" y="386" width="88" height="42" fill="#98c2a6" stroke="#fff" stroke-width="1.2"/>
<text class="num" x="424" y="412.04" text-anchor="middle" fill="#111">83.8</text>
<rect x="386.5" y="422.5" width="18.5735" height="3" rx="1.5" fill="#d95f02" opacity="0.82"/>
<rect x="468" y="386" width="88" height="42" fill="#88b898" stroke="#fff" stroke-width="1.2"/>
<text class="num" x="512" y="412.04" text-anchor="middle" fill="#fff">85.9</text>
<rect x="474.5" y="422.5" width="23.9779" height="3" rx="1.5" fill="#d95f02" opacity="0.82"/>
<rect x="556" y="386" width="88" height="42" fill="#a5c9b1" stroke="#fff" stroke-width="1.2"/>
<text class="num" x="600" y="412.04" text-anchor="middle" fill="#111">82.1</text>
<rect x="562.5" y="422.5" width="20.25" height="3" rx="1.5" fill="#d95f02" opacity="0.82"/>
<rect x="644" y="386" width="88" height="42" fill="#aaccb5" stroke="#fff" stroke-width="1.2"/>
<text class="num" x="688" y="412.04" text-anchor="middle" fill="#111">81.4</text>
<rect x="650.5" y="422.5" width="15.0882" height="3" rx="1.5" fill="#d95f02" opacity="0.82"/>
<rect x="732" y="386" width="88" height="42" fill="#8ebc9e" stroke="#fff" stroke-width="1.2"/>
<text class="num" x="776" y="412.04" text-anchor="middle" fill="#111">85.1</text>
<rect x="738.5" y="422.5" width="16.9632" height="3" rx="1.5" fill="#d95f02" opacity="0.82"/>
<text class="lab" x="104" y="443.96" text-anchor="end">SVO/GN</text>
<text class="lab" x="104" y="462.44" text-anchor="end">ERG-ABS</text>
<rect x="116" y="428" width="88" height="42" fill="#82b593" stroke="#fff" stroke-width="1.2"/>
<text class="num" x="160" y="454.04" text-anchor="middle" fill="#fff">86.7</text>
<rect x="122.5" y="464.5" width="14.7794" height="3" rx="1.5" fill="#d95f02" opacity="0.82"/>
<rect x="204" y="428" width="88" height="42" fill="#61a177" stroke="#fff" stroke-width="1.2"/>
<text class="num" x="248" y="454.04" text-anchor="middle" fill="#fff">91.2</text>
<rect x="210.5" y="464.5" width="9.63971" height="3" rx="1.5" fill="#d95f02" opacity="0.82"/>
<rect x="292" y="428" width="88" height="42" fill="#5d9f73" stroke="#fff" stroke-width="1.2"/>
<text class="num" x="336" y="454.04" text-anchor="middle" fill="#fff">91.7</text>
<rect x="298.5" y="464.5" width="13.125" height="3" rx="1.5" fill="#d95f02" opacity="0.82"/>
<rect x="380" y="428" width="88" height="42" fill="#599c70" stroke="#fff" stroke-width="1.2"/>
<text class="num" x="424" y="454.04" text-anchor="middle" fill="#fff">92.3</text>
<rect x="386.5" y="464.5" width="8.58088" height="3" rx="1.5" fill="#d95f02" opacity="0.82"/>
<rect x="468" y="428" width="88" height="42" fill="#69a67e" stroke="#fff" stroke-width="1.2"/>
<text class="num" x="512" y="454.04" text-anchor="middle" fill="#fff">90.1</text>
<rect x="474.5" y="464.5" width="12.1544" height="3" rx="1.5" fill="#d95f02" opacity="0.82"/>
<rect x="556" y="428" width="88" height="42" fill="#7cb18e" stroke="#fff" stroke-width="1.2"/>
<text class="num" x="600" y="454.04" text-anchor="middle" fill="#fff">87.5</text>
<rect x="562.5" y="464.5" width="18.75" height="3" rx="1.5" fill="#d95f02" opacity="0.82"/>
<rect x="644" y="428" width="88" height="42" fill="#6ea982" stroke="#fff" stroke-width="1.2"/>
<text class="num" x="688" y="454.04" text-anchor="middle" fill="#fff">89.4</text>
<rect x="650.5" y="464.5" width="13.6985" height="3" rx="1.5" fill="#d95f02" opacity="0.82"/>
<rect x="732" y="428" width="88" height="42" fill="#6ca880" stroke="#fff" stroke-width="1.2"/>
<text class="num" x="776" y="454.04" text-anchor="middle" fill="#fff">89.7</text>
<rect x="738.5" y="464.5" width="11.4706" height="3" rx="1.5" fill="#d95f02" opacity="0.82"/>
<text class="lab" x="104" y="485.96" text-anchor="end">SVO/NG</text>
<text class="lab" x="104" y="504.44" text-anchor="end">ERG-ABS</text>
<rect x="116" y="470" width="88" height="42" fill="#89b999" stroke="#fff" stroke-width="1.2"/>
<text class="num" x="160" y="496.04" text-anchor="middle" fill="#111">85.8</text>
<rect x="122.5" y="506.5" width="13.3456" height="3" rx="1.5" fill="#d95f02" opacity="0.82"/>
<rect x="204" y="470" width="88" height="42" fill="#73ac86" stroke="#fff" stroke-width="1.2"/>
<text class="num" x="248" y="496.04" text-anchor="middle" fill="#fff">88.7</text>
<rect x="210.5" y="506.5" width="11.3824" height="3" rx="1.5" fill="#d95f02" opacity="0.82"/>
<rect x="292" y="470" width="88" height="42" fill="#589c6f" stroke="#fff" stroke-width="1.2"/>
<text class="num" x="336" y="496.04" text-anchor="middle" fill="#fff">92.3</text>
<rect x="298.5" y="506.5" width="7.23529" height="3" rx="1.5" fill="#d95f02" opacity="0.82"/>
<rect x="380" y="470" width="88" height="42" fill="#4e9666" stroke="#fff" stroke-width="1.2"/>
<text class="num" x="424" y="496.04" text-anchor="middle" fill="#fff">93.7</text>
<rect x="386.5" y="506.5" width="7.14706" height="3" rx="1.5" fill="#d95f02" opacity="0.82"/>
<rect x="468" y="470" width="88" height="42" fill="#76ad89" stroke="#fff" stroke-width="1.2"/>
<text class="num" x="512" y="496.04" text-anchor="middle" fill="#fff">88.4</text>
<rect x="474.5" y="506.5" width="11.0515" height="3" rx="1.5" fill="#d95f02" opacity="0.82"/>
<rect x="556" y="470" width="88" height="42" fill="#82b594" stroke="#fff" stroke-width="1.2"/>
<text class="num" x="600" y="496.04" text-anchor="middle" fill="#fff">86.7</text>
<rect x="562.5" y="506.5" width="11.4044" height="3" rx="1.5" fill="#d95f02" opacity="0.82"/>
<rect x="644" y="470" width="88" height="42" fill="#90bda0" stroke="#fff" stroke-width="1.2"/>
<text class="num" x="688" y="496.04" text-anchor="middle" fill="#111">84.8</text>
<rect x="650.5" y="506.5" width="7.25735" height="3" rx="1.5" fill="#d95f02" opacity="0.82"/>
<rect x="732" y="470" width="88" height="42" fill="#6ba77f" stroke="#fff" stroke-width="1.2"/>
<text class="num" x="776" y="496.04" text-anchor="middle" fill="#fff">89.8</text>
<rect x="738.5" y="506.5" width="7.16912" height="3" rx="1.5" fill="#d95f02" opacity="0.82"/>
<text class="lab" x="104" y="527.96" text-anchor="end">VOS/GN</text>
<text class="lab" x="104" y="546.44" text-anchor="end">ERG-ABS</text>
<rect x="116" y="512" width="88" height="42" fill="#9dc5aa" stroke="#fff" stroke-width="1.2"/>
<text class="num" x="160" y="538.04" text-anchor="middle" fill="#111">83.2</text>
<rect x="122.5" y="548.5" width="26.0294" height="3" rx="1.5" fill="#d95f02" opacity="0.82"/>
<rect x="204" y="512" width="88" height="42" fill="#81b493" stroke="#fff" stroke-width="1.2"/>
<text class="num" x="248" y="538.04" text-anchor="middle" fill="#fff">86.8</text>
<rect x="210.5" y="548.5" width="22.7868" height="3" rx="1.5" fill="#d95f02" opacity="0.82"/>
<rect x="292" y="512" width="88" height="42" fill="#68a57d" stroke="#fff" stroke-width="1.2"/>
<text class="num" x="336" y="538.04" text-anchor="middle" fill="#fff">90.3</text>
<rect x="298.5" y="548.5" width="14.4926" height="3" rx="1.5" fill="#d95f02" opacity="0.82"/>
<rect x="380" y="512" width="88" height="42" fill="#65a37a" stroke="#fff" stroke-width="1.2"/>
<text class="num" x="424" y="538.04" text-anchor="middle" fill="#fff">90.6</text>
<rect x="386.5" y="548.5" width="18.5735" height="3" rx="1.5" fill="#d95f02" opacity="0.82"/>
<rect x="468" y="512" width="88" height="42" fill="#5a9d71" stroke="#fff" stroke-width="1.2"/>
<text class="num" x="512" y="538.04" text-anchor="middle" fill="#fff">92.1</text>
<rect x="474.5" y="548.5" width="23.9779" height="3" rx="1.5" fill="#d95f02" opacity="0.82"/>
<rect x="556" y="512" width="88" height="42" fill="#69a67d" stroke="#fff" stroke-width="1.2"/>
<text class="num" x="600" y="538.04" text-anchor="middle" fill="#fff">90.1</text>
<rect x="562.5" y="548.5" width="20.25" height="3" rx="1.5" fill="#d95f02" opacity="0.82"/>
<rect x="644" y="512" width="88" height="42" fill="#61a177" stroke="#fff" stroke-width="1.2"/>
<text class="num" x="688" y="538.04" text-anchor="middle" fill="#fff">91.1</text>
<rect x="650.5" y="548.5" width="15.0882" height="3" rx="1.5" fill="#d95f02" opacity="0.82"/>
<rect x="732" y="512" width="88" height="42" fill="#61a177" stroke="#fff" stroke-width="1.2"/>
<text class="num" x="776" y="538.04" text-anchor="middle" fill="#fff">91.2</text>
<rect x="738.5" y="548.5" width="16.9632" height="3" rx="1.5" fill="#d95f02" opacity="0.82"/>
<text class="lab" x="104" y="569.96" text-anchor="end">VOS/NG</text>
<text class="lab" x="104" y="588.44" text-anchor="end">ERG-ABS</text>
<rect x="116" y="554" width="88" height="42" fill="#99c2a7" stroke="#fff" stroke-width="1.2"/>
<text class="num" x="160" y="580.04" text-anchor="middle" fill="#111">83.6</text>
<rect x="122.5" y="590.5" width="22.6765" height="3" rx="1.5" fill="#d95f02" opacity="0.82"/>
<rect x="204" y="554" width="88" height="42" fill="#88b898" stroke="#fff" stroke-width="1.2"/>
<text class="num" x="248" y="580.04" text-anchor="middle" fill="#fff">86.0</text>
<rect x="210.5" y="590.5" width="22.6103" height="3" rx="1.5" fill="#d95f02" opacity="0.82"/>
<rect x="292" y="554" width="88" height="42" fill="#7ab08d" stroke="#fff" stroke-width="1.2"/>
<text class="num" x="336" y="580.04" text-anchor="middle" fill="#fff">87.8</text>
<rect x="298.5" y="590.5" width="15.1985" height="3" rx="1.5" fill="#d95f02" opacity="0.82"/>
<rect x="380" y="554" width="88" height="42" fill="#65a37a" stroke="#fff" stroke-width="1.2"/>
<text class="num" x="424" y="580.04" text-anchor="middle" fill="#fff">90.7</text>
<rect x="386.5" y="590.5" width="17.0956" height="3" rx="1.5" fill="#d95f02" opacity="0.82"/>
<rect x="468" y="554" width="88" height="42" fill="#559a6d" stroke="#fff" stroke-width="1.2"/>
<text class="num" x="512" y="580.04" text-anchor="middle" fill="#fff">92.7</text>
<rect x="474.5" y="590.5" width="17.5809" height="3" rx="1.5" fill="#d95f02" opacity="0.82"/>
<rect x="556" y="554" width="88" height="42" fill="#72ab86" stroke="#fff" stroke-width="1.2"/>
<text class="num" x="600" y="580.04" text-anchor="middle" fill="#fff">88.9</text>
<rect x="562.5" y="590.5" width="22.2794" height="3" rx="1.5" fill="#d95f02" opacity="0.82"/>
<rect x="644" y="554" width="88" height="42" fill="#73ac86" stroke="#fff" stroke-width="1.2"/>
<text class="num" x="688" y="580.04" text-anchor="middle" fill="#fff">88.8</text>
<rect x="650.5" y="590.5" width="15.7941" height="3" rx="1.5" fill="#d95f02" opacity="0.82"/>
<rect x="732" y="554" width="88" height="42" fill="#64a379" stroke="#fff" stroke-width="1.2"/>
<text class="num" x="776" y="580.04" text-anchor="middle" fill="#fff">90.8</text>
<rect x="738.5" y="590.5" width="19.5662" height="3" rx="1.5" fill="#d95f02" opacity="0.82"/>
<rect x="116" y="92" width="704" height="504" fill="none" stroke="#333" stroke-width="1"/>
<rect x="116" y="614" width="3.45" height="11" fill="#ffffff"/>
<rect x="118.75" y="614" width="3.45" height="11" fill="#fcfdfd"/>
<rect x="121.5" y="614" width="3.45" height="11" fill="#f9fcfa"/>
<rect x="124.25" y="614" width="3.45" height="11" fill="#f6faf8"/>
<rect x="127" y="614" width="3.45" height="11" fill="#f4f8f5"/>
<rect x="129.75" y="614" width="3.45" height="11" fill="#f1f7f3"/>
<rect x="132.5" y="614" width="3.45" height="11" fill="#eef5f0"/>
<rect x="135.25" y="614" width="3.45" height="11" fill="#ebf3ee"/>
<rect x="138" y="614" width="3.45" height="11" fill="#e8f2eb"/>
<rect x="140.75" y="614" width="3.45" height="11" fill="#e5f0e9"/>
<rect x="143.5" y="614" width="3.45" height="11" fill="#e3eee7"/>
<rect x="146.25" y="614" width="3.45" height="11" fill="#e0ece4"/>
<rect x="149" y="614" width="3.45" height="11" fill="#ddebe2"/>
<rect x="151.75" y="614" width="3.45" height="11" fill="#dae9df"/>
<rect x="154.5" y="614" width="3.45" height="11" fill="#d7e7dd"/>
<rect x="157.25" y="614" width="3.45" height="11" fill="#d4e6da"/>
<rect x="160" y="614" width="3.45" height="11" fill="#d2e4d8"/>
<rect x="162.75" y="614" width="3.45" height="11" fill="#cfe2d5"/>
<rect x="165.5" y="614" width="3.45" height="11" fill="#cce1d3"/>
<rect x="168.25" y="614" width="3.45" height="11" fill="#c9dfd1"/>
<rect x="171" y="614" width="3.45" height="11" fill="#c6ddce"/>
<rect x="173.75" y="614" width="3.45" height="11" fill="#c3dccc"/>
<rect x="176.5" y="614" width="3.45" height="11" fill="#c1dac9"/>
<rect x="179.25" y="614" width="3.45" height="11" fill="#bed8c7"/>
<rect x="182" y="614" width="3.45" height="11" fill="#bbd7c4"/>
<rect x="184.75" y="614" width="3.45" height="11" fill="#b8d5c2"/>
<rect x="187.5" y="614" width="3.45" height="11" fill="#b5d3bf"/>
<rect x="190.25" y="614" width="3.45" height="11" fill="#b2d2bd"/>
<rect x="193" y="614" width="3.45" height="11" fill="#b0d0bb"/>
<rect x="195.75" y="614" width="3.45" height="11" fill="#adceb8"/>
<rect x="198.5" y="614" width="3.45" height="11" fill="#aaccb6"/>
<rect x="201.25" y="614" width="3.45" height="11" fill="#a7cbb3"/>
<rect x="204" y="614" width="3.45" height="11" fill="#a4c9b1"/>
<rect x="206.75" y="614" width="3.45" height="11" fill="#a1c7ae"/>
<rect x="209.5" y="614" width="3.45" height="11" fill="#9fc6ac"/>
<rect x="212.25" y="614" width="3.45" height="11" fill="#9cc4a9"/>
<rect x="215" y="614" width="3.45" height="11" fill="#99c2a7"/>
<rect x="217.75" y="614" width="3.45" height="11" fill="#96c1a5"/>
<rect x="220.5" y="614" width="3.45" height="11" fill="#93bfa2"/>
<rect x="223.25" y="614" width="3.45" height="11" fill="#90bda0"/>
<rect x="226" y="614" width="3.45" height="11" fill="#8ebc9d"/>
<rect x="228.75" y="614" width="3.45" height="11" fill="#8bba9b"/>
<rect x="231.5" y="614" width="3.45" height="11" fill="#88b898"/>
<rect x="234.25" y="614" width="3.45" height="11" fill="#85b796"/>
<rect x="237" y="614" width="3.45" height="11" fill="#82b594"/>
<rect x="239.75" y="614" width="3.45" height="11" fill="#7fb391"/>
<rect x="242.5" y="614" width="3.45" height="11" fill="#7db28f"/>
<rect x="245.25" y="614" width="3.45" height="11" fill="#7ab08c"/>
<rect x="248" y="614" width="3.45" height="11" fill="#77ae8a"/>
<rect x="250.75" y="614" width="3.45" height="11" fill="#74ad87"/>
<rect x="253.5" y="614" width="3.45" height="11" fill="#71ab85"/>
<rect x="256.25" y="614" width="3.45" height="11" fill="#6ea982"/>
<rect x="259" y="614" width="3.45" height="11" fill="#6ca780"/>
<rect x="261.75" y="614" width="3.45" height="11" fill="#69a67e"/>
<rect x="264.5" y="614" width="3.45" height="11" fill="#66a47b"/>
<rect x="267.25" y="614" width="3.45" height="11" fill="#63a279"/>
<rect x="270" y="614" width="3.45" height="11" fill="#60a176"/>
<rect x="272.75" y="614" width="3.45" height="11" fill="#5d9f74"/>
<rect x="275.5" y="614" width="3.45" height="11" fill="#5b9d71"/>
<rect x="278.25" y="614" width="3.45" height="11" fill="#589c6f"/>
<rect x="281" y="614" width="3.45" height="11" fill="#559a6c"/>
<rect x="283.75" y="614" width="3.45" height="11" fill="#52986a"/>
<rect x="286.5" y="614" width="3.45" height="11" fill="#4f9768"/>
<rect x="289.25" y="614" width="3.45" height="11" fill="#4c9565"/>
<rect x="292" y="614" width="3.45" height="11" fill="#4a9363"/>
<rect x="294.75" y="614" width="3.45" height="11" fill="#479260"/>
<rect x="297.5" y="614" width="3.45" height="11" fill="#44905e"/>
<rect x="300.25" y="614" width="3.45" height="11" fill="#418e5b"/>
<rect x="303" y="614" width="3.45" height="11" fill="#3e8d59"/>
<rect x="305.75" y="614" width="3.45" height="11" fill="#3b8b56"/>
<rect x="308.5" y="614" width="3.45" height="11" fill="#398954"/>
<rect x="311.25" y="614" width="3.45" height="11" fill="#368752"/>
<rect x="314" y="614" width="3.45" height="11" fill="#33864f"/>
<rect x="316.75" y="614" width="3.45" height="11" fill="#30844d"/>
<rect x="319.5" y="614" width="3.45" height="11" fill="#2d824a"/>
<rect x="322.25" y="614" width="3.45" height="11" fill="#2a8148"/>
<rect x="325" y="614" width="3.45" height="11" fill="#287f45"/>
<rect x="327.75" y="614" width="3.45" height="11" fill="#257d43"/>
<rect x="330.5" y="614" width="3.45" height="11" fill="#227c40"/>
<rect x="333.25" y="614" width="3.45" height="11" fill="#1f7a3e"/>
<rect x="116" y="614" width="220" height="11" fill="none" stroke="#888" stroke-width="0.6"/>
<text class="small" x="116" y="642">70</text>
<text class="small" x="336" y="642" text-anchor="end">100</text>
<text class="small" x="226" y="642" text-anchor="middle">Accuracy</text>
<rect x="600" y="618" width="220" height="3.2" rx="1.6" fill="#d95f02" opacity="0.82"/>
<text class="small" x="600" y="642">0</text>
<text class="small" x="820" y="642" text-anchor="end">100</text>
<text class="small" x="710" y="642" text-anchor="middle">BAD parse rate</text>
</svg>