<svg xmlns="http://www.w3.org/2000/svg" width="880" height="556" viewBox="0 0 880 556">
<defs><style>text{font-family:Arial,Helvetica,sans-serif}.lab{font-size:11px;fill:#111}.num{font-size:13px;font-weight:700}.small{font-size:12px;fill:#555}.comp{font-size:11px;fill:#555}</style></defs>
<rect x="0" y="0" width="880" height="556" fill="#fff"/>
<text class="lab" x="160" y="52" text-anchor="middle">SENT</text>
<text class="comp" x="160" y="65" text-anchor="middle">Balancing</text>
<text class="lab" x="248" y="52" text-anchor="middle">POSS-ACC</text>
<text class="comp" x="248" y="65" text-anchor="middle">Balancing</text>
<text class="lab" x="336" y="52" text-anchor="middle">ERG-POSS</text>
<text class="comp" x="336" y="65" text-anchor="middle">Balancing</text>
<text class="lab" x="424" y="52" text-anchor="middle">NOMN</text>
<text class="comp" x="424" y="65" text-anchor="middle">Balancing</text>
<text class="lab" x="512" y="52" text-anchor="middle">SENT</text>
<text class="comp" x="512" y="65" text-anchor="middle">Deranking</text>
<text class="lab" x="600" y="52" text-anchor="middle">POSS-ACC</text>
<text class="comp" x="600" y="65" text-anchor="middle">Deranking</text>
<text class="lab" x="688" y="52" text-anchor="middle">ERG-POSS</text>
<text class="comp" x="688" y="65" text-anchor="middle">Deranking</text>
<text class="lab" x="776" y="52" text-anchor="middle">NOMN</text>
<text class="comp" x="776" y="65" text-anchor="middle">Deranking</text>
<text class="lab" x="104" y="82.92" text-anchor="end">SOV/GN</text>
<text class="lab" x="104" y="97.88" text-anchor="end">NOM-ACC</text>
<rect x="116" y="70" width="88" height="34" fill="#6da881" stroke="#fff" stroke-width="1.2"/>
<text class="num" x="160" y="91.08" text-anchor="middle" fill="#fff">82.7</text>
<rect x="122.5" y="98.5" width="75" height="2.6" rx="1.5" fill="#d95f02" opacity="0.82"/>
<rect x="204" y="70" width="88" height="34" fill="#438f5d" stroke="#fff" stroke-width="1.2"/>
<text class="num" x="248" y="91.08" text-anchor="middle" fill="#fff">92.0</text>
<rect x="210.5" y="98.5" width="75" height="2.6" rx="1.5" fill="#d95f02" opacity="0.82"/>
<rect x="292" y="70" width="88" height="34" fill="#76ad89" stroke="#fff" stroke-width="1.2"/>
<text class="num" x="336" y="91.08" text-anchor="middle" fill="#fff">80.7</text>
<rect x="298.5" y="98.5" width="75" height="2.6" rx="1.5" fill="#d95f02" opacity="0.82"/>
<rect x="380" y="70" width="88" height="34" fill="#388954" stroke="#fff" stroke-width="1.2"/>
<text class="num" x="424" y="91.08" text-anchor="middle" fill="#fff">94.3</text>
<rect x="386.5" y="98.5" width="75" height="2.6" rx="1.5" fill="#d95f02" opacity="0.82"/>
<rect x="468" y="70" width="88" height="34" fill="#207b3f" stroke="#fff" stroke-width="1.2"/>
<text class="num" x="512" y="91.08" text-anchor="middle" fill="#fff">99.7</text>
<rect x="556" y="70" width="88" height="34" fill="#207b3f" stroke="#fff" stroke-width="1.2"/>
<text class="num" x="600" y="91.08" text-anchor="middle" fill="#fff">99.7</text>
<rect x="644" y="70" width="88" height="34" fill="#1f7a3e" stroke="#fff" stroke-width="1.2"/>
<text class="num" x="688" y="91.08" text-anchor="middle" fill="#fff">100.0</text>
<rect x="732" y="70" width="88" height="34" fill="#1f7a3e" stroke="#fff" stroke-width="1.2"/>
<text class="num" x="776" y="91.08" text-anchor="middle" fill="#fff">100.0</text>
<text class="lab" x="104" y="116.92" text-anchor="end">SOV/NG</text>
<text class="lab" x="104" y="131.88" text-anchor="end">NOM-ACC</text>
<rect x="116" y="104" width="88" height="34" fill="#70aa83" stroke="#fff" stroke-width="1.2"/>
<text class="num" x="160" y="125.08" text-anchor="middle" fill="#fff">82.0</text>
<rect x="122.5" y="132.5" width="75" height="2.6" rx="1.5" fill="#d95f02" opacity="0.82"/>
<rect x="204" y="104" width="88" height="34" fill="#1f7a3e" stroke="#fff" stroke-width="1.2"/>
<text class="num" x="248" y="125.08" text-anchor="middle" fill="#fff">100.0</text>
<rect x="292" y="104" width="88" height="34" fill="#86b797" stroke="#fff" stroke-width="1.2"/>
<text class="num" x="336" y="125.08" text-anchor="middle" fill="#fff">77.0</text>
<rect x="298.5" y="132.5" width="75" height="2.6" rx="1.5" fill="#d95f02" opacity="0.82"/>
<rect x="380" y="104" width="88" height="34" fill="#1f7a3e" stroke="#fff" stroke-width="1.2"/>
<text class="num" x="424" y="125.08" text-anchor="middle" fill="#fff">100.0</text>
<rect x="468" y="104" width="88" height="34" fill="#207b3f" stroke="#fff" stroke-width="1.2"/>
<text class="num" x="512" y="125.08" text-anchor="middle" fill="#fff">99.7</text>
<rect x="556" y="104" width="88" height="34" fill="#1f7a3e" stroke="#fff" stroke-width="1.2"/>
<text class="num" x="600" y="125.08" text-anchor="middle" fill="#fff">100.0</text>
<rect x="644" y="104" width="88" height="34" fill="#227c41" stroke="#fff" stroke-width="1.2"/>
<text class="num" x="688" y="125.08" text-anchor="middle" fill="#fff">99.3</text>
<rect x="732" y="104" width="88" height="34" fill="#1f7a3e" stroke="#fff" stroke-width="1.2"/>
<text class="num" x="776" y="125.08" text-anchor="middle" fill="#fff">100.0</text>
<text class="lab" x="104" y="150.92" text-anchor="end">SVO/GN</text>
<text class="lab" x="104" y="165.88" text-anchor="end">NOM-ACC</text>
<rect x="116" y="138" width="88" height="34" fill="#9ec5ab" stroke="#fff" stroke-width="1.2"/>
<text class="num" x="160" y="159.08" text-anchor="middle" fill="#111">71.7</text>
<rect x="122.5" y="166.5" width="75" height="2.6" rx="1.5" fill="#d95f02" opacity="0.82"/>
<rect x="204" y="138" width="88" height="34" fill="#3e8d59" stroke="#fff" stroke-width="1.2"/>
<text class="num" x="248" y="159.08" text-anchor="middle" fill="#fff">93.0</text>
<rect x="210.5" y="166.5" width="75" height="2.6" rx="1.5" fill="#d95f02" opacity="0.82"/>
<rect x="292" y="138" width="88" height="34" fill="#287f46" stroke="#fff" stroke-width="1.2"/>
<text class="num" x="336" y="159.08" text-anchor="middle" fill="#fff">98.0</text>
<rect x="380" y="138" width="88" height="34" fill="#408e5a" stroke="#fff" stroke-width="1.2"/>
<text class="num" x="424" y="159.08" text-anchor="middle" fill="#fff">92.7</text>
<rect x="386.5" y="166.5" width="75" height="2.6" rx="1.5" fill="#d95f02" opacity="0.82"/>
<rect x="468" y="138" width="88" height="34" fill="#237d42" stroke="#fff" stroke-width="1.2"/>
<text class="num" x="512" y="159.08" text-anchor="middle" fill="#fff">99.0</text>
<rect x="556" y="138" width="88" height="34" fill="#1f7a3e" stroke="#fff" stroke-width="1.2"/>
<text class="num" x="600" y="159.08" text-anchor="middle" fill="#fff">100.0</text>
<rect x="644" y="138" width="88" height="34" fill="#2c824a" stroke="#fff" stroke-width="1.2"/>
<text class="num" x="688" y="159.08" text-anchor="middle" fill="#fff">97.0</text>
<rect x="732" y="138" width="88" height="34" fill="#237d42" stroke="#fff" stroke-width="1.2"/>
<text class="num" x="776" y="159.08" text-anchor="middle" fill="#fff">99.0</text>
<text class="lab" x="104" y="184.92" text-anchor="end">SVO/NG</text>
<text class="lab" x="104" y="199.88" text-anchor="end">NOM-ACC</text>
<rect x="116" y="172" width="88" height="34" fill="#9ec5ab" stroke="#fff" stroke-width="1.2"/>
<text class="num" x="160" y="193.08" text-anchor="middle" fill="#111">71.7</text>
<rect x="122.5" y="200.5" width="75" height="2.6" rx="1.5" fill="#d95f02" opacity="0.82"/>
<rect x="204" y="172" width="88" height="34" fill="#1f7a3e" stroke="#fff" stroke-width="1.2"/>
<text class="num" x="248" y="193.08" text-anchor="middle" fill="#fff">100.0</text>
<rect x="292" y="172" width="88" height="34" fill="#1f7a3e" stroke="#fff" stroke-width="1.2"/>
<text class="num" x="336" y="193.08" text-anchor="middle" fill="#fff">100.0</text>
<rect x="380" y="172" width="88" height="34" fill="#1f7a3e" stroke="#fff" stroke-width="1.2"/>
<text class="num" x="424" y="193.08" text-anchor="middle" fill="#fff">100.0</text>
<rect x="468" y="172" width="88" height="34" fill="#2b8148" stroke="#fff" stroke-width="1.2"/>
<text class="num" x="512" y="193.08" text-anchor="middle" fill="#fff">97.3</text>
<rect x="556" y="172" width="88" height="34" fill="#1f7a3e" stroke="#fff" stroke-width="1.2"/>
<text class="num" x="600" y="193.08" text-anchor="middle" fill="#fff">100.0</text>
<rect x="644" y="172" width="88" height="34" fill="#1f7a3e" stroke="#fff" stroke-width="1.2"/>
<text class="num" x="688" y="193.08" text-anchor="middle" fill="#fff">100.0</text>
<rect x="732" y="172" width="88" height="34" fill="#1f7a3e" stroke="#fff" stroke-width="1.2"/>
<text class="num" x="776" y="193.08" text-anchor="middle" fill="#fff">100.0</text>
<text class="lab" x="104" y="218.92" text-anchor="end">VOS/GN</text>
<text class="lab" x="104" y="233.88" text-anchor="end">NOM-ACC</text>
<rect x="116" y="206" width="88" height="34" fill="#a1c7ae" stroke="#fff" stroke-width="1.2"/>
<text class="num" x="160" y="227.08" text-anchor="middle" fill="#111">71.0</text>
<rect x="122.5" y="234.5" width="75" height="2.6" rx="1.5" fill="#d95f02" opacity="0.82"/>
<rect x="204" y="206" width="88" height="34" fill="#1f7a3e" stroke="#fff" stroke-width="1.2"/>
<text class="num" x="248" y="227.08" text-anchor="middle" fill="#fff">100.0</text>
<rect x="292" y="206" width="88" height="34" fill="#aaccb6" stroke="#fff" stroke-width="1.2"/>
<text class="num" x="336" y="227.08" text-anchor="middle" fill="#111">69.0</text>
<rect x="298.5" y="234.5" width="75" height="2.6" rx="1.5" fill="#d95f02" opacity="0.82"/>
<rect x="380" y="206" width="88" height="34" fill="#207b3f" stroke="#fff" stroke-width="1.2"/>
<text class="num" x="424" y="227.08" text-anchor="middle" fill="#fff">99.7</text>
<rect x="468" y="206" width="88" height="34" fill="#1f7a3e" stroke="#fff" stroke-width="1.2"/>
<text class="num" x="512" y="227.08" text-anchor="middle" fill="#fff">100.0</text>
<rect x="556" y="206" width="88" height="34" fill="#1f7a3e" stroke="#fff" stroke-width="1.2"/>
<text class="num" x="600" y="227.08" text-anchor="middle" fill="#fff">100.0</text>
<rect x="644" y="206" width="88" height="34" fill="#1f7a3e" stroke="#fff" stroke-width="1.2"/>
<text class="num" x="688" y="227.08" text-anchor="middle" fill="#fff">100.0</text>
<rect x="732" y="206" width="88" height="34" fill="#1f7a3e" stroke="#fff" stroke-width="1.2"/>
<text class="num" x="776" y="227.08" text-anchor="middle" fill="#fff">100.0</text>
<text class="lab" x="104" y="252.92" text-anchor="end">VOS/NG</text>
<text class="lab" x="104" y="267.88" text-anchor="end">NOM-ACC</text>
<rect x="116" y="240" width="88" height="34" fill="#82b593" stroke="#fff" stroke-width="1.2"/>
<text class="num" x="160" y="261.08" text-anchor="middle" fill="#fff">78.0</text>
<rect x="122.5" y="268.5" width="75" height="2.6" rx="1.5" fill="#d95f02" opacity="0.82"/>
<rect x="204" y="240" width="88" height="34" fill="#3d8c58" stroke="#fff" stroke-width="1.2"/>
<text class="num" x="248" y="261.08" text-anchor="middle" fill="#fff">93.3</text>
<rect x="210.5" y="268.5" width="75" height="2.6" rx="1.5" fill="#d95f02" opacity="0.82"/>
<rect x="292" y="240" width="88" height="34" fill="#88b898" stroke="#fff" stroke-width="1.2"/>
<text class="num" x="336" y="261.08" text-anchor="middle" fill="#fff">76.7</text>
<rect x="298.5" y="268.5" width="75" height="2.6" rx="1.5" fill="#d95f02" opacity="0.82"/>
<rect x="380" y="240" width="88" height="34" fill="#3d8c58" stroke="#fff" stroke-width="1.2"/>
<text class="num" x="424" y="261.08" text-anchor="middle" fill="#fff">93.3</text>
<rect x="386.5" y="268.5" width="75" height="2.6" rx="1.5" fill="#d95f02" opacity="0.82"/>
<rect x="468" y="240" width="88" height="34" fill="#1f7a3e" stroke="#fff" stroke-width="1.2"/>
<text class="num" x="512" y="261.08" text-anchor="middle" fill="#fff">100.0</text>
<rect x="556" y="240" width="88" height="34" fill="#1f7a3e" stroke="#fff" stroke-width="1.2"/>
<text class="num" x="600" y="261.08" text-anchor="middle" fill="#fff">100.0</text>
<rect x="644" y="240" width="88" height="34" fill="#1f7a3e" stroke="#fff" stroke-width="1.2"/>
<text class="num" x="688" y="261.08" text-anchor="middle" fill="#fff">100.0</text>
<rect x="732" y="240" width="88" height="34" fill="#1f7a3e" stroke="#fff" stroke-width="1.2"/>
<text class="num" x="776" y="261.08" text-anchor="middle" fill="#fff">100.0</text>
<text class="lab" x="104" y="286.92" text-anchor="end">SOV/GN</text>
<text class="lab" x="104" y="301.88" text-anchor="end">ERG-ABS</text>
<rect x="116" y="274" width="88" height="34" fill="#cce1d3" stroke="#fff" stroke-width="1.2"/>
<text class="num" x="160" y="295.08" text-anchor="middle" fill="#111">61.3</text>
<rect x="204" y="274" width="88" height="34" fill="#eaf3ed" stroke="#fff" stroke-width="1.2"/>
<text class="num" x="248" y="295.08" text-anchor="middle" fill="#111">54.7</text>
<rect x="292" y="274" width="88" height="34" fill="#ffffff" stroke="#fff" stroke-width="1.2"/>
<text class="num" x="336" y="295.08" text-anchor="middle" fill="#111">34.0</text>
<rect x="380" y="274" width="88" height="34" fill="#ecf3ee" stroke="#fff" stroke-width="1.2"/>
<text class="num" x="424" y="295.08" text-anchor="middle" fill="#111">54.3</text>
<rect x="468" y="274" width="88" height="34" fill="#46915f" stroke="#fff" stroke-width="1.2"/>
<text class="num" x="512" y="295.08" text-anchor="middle" fill="#fff">91.3</text>
<rect x="556" y="274" width="88" height="34" fill="#76ad89" stroke="#fff" stroke-width="1.2"/>
<text class="num" x="600" y="295.08" text-anchor="middle" fill="#fff">80.7</text>
<rect x="644" y="274" width="88" height="34" fill="#b9d5c3" stroke="#fff" stroke-width="1.2"/>
<text class="num" x="688" y="295.08" text-anchor="middle" fill="#111">65.7</text>
<rect x="732" y="274" width="88" height="34" fill="#7cb18e" stroke="#fff" stroke-width="1.2"/>
<text class="num" x="776" y="295.08" text-anchor="middle" fill="#fff">79.3</text>
<text class="lab" x="104" y="320.92" text-anchor="end">SOV/NG</text>
<text class="lab" x="104" y="335.88" text-anchor="end">ERG-ABS</text>
<rect x="116" y="308" width="88" height="34" fill="#dae9df" stroke="#fff" stroke-width="1.2"/>
<text class="num" x="160" y="329.08" text-anchor="middle" fill="#111">58.3</text>
<rect x="204" y="308" width="88" height="34" fill="#52986a" stroke="#fff" stroke-width="1.2"/>
<text class="num" x="248" y="329.08" text-anchor="middle" fill="#fff">88.7</text>
<rect x="292" y="308" width="88" height="34" fill="#ffffff" stroke="#fff" stroke-width="1.2"/>
<text class="num" x="336" y="329.08" text-anchor="middle" fill="#111">17.3</text>
<rect x="380" y="308" width="88" height="34" fill="#499362" stroke="#fff" stroke-width="1.2"/>
<text class="num" x="424" y="329.08" text-anchor="middle" fill="#fff">90.7</text>
<rect x="468" y="308" width="88" height="34" fill="#44905e" stroke="#fff" stroke-width="1.2"/>
<text class="num" x="512" y="329.08" text-anchor="middle" fill="#fff">91.7</text>
<rect x="556" y="308" width="88" height="34" fill="#61a177" stroke="#fff" stroke-width="1.2"/>
<text class="num" x="600" y="329.08" text-anchor="middle" fill="#fff">85.3</text>
<rect x="644" y="308" width="88" height="34" fill="#dbeae0" stroke="#fff" stroke-width="1.2"/>
<text class="num" x="688" y="329.08" text-anchor="middle" fill="#111">58.0</text>
<rect x="732" y="308" width="88" height="34" fill="#569b6e" stroke="#fff" stroke-width="1.2"/>
<text class="num" x="776" y="329.08" text-anchor="middle" fill="#fff">87.7</text>
<text class="lab" x="104" y="354.92" text-anchor="end">SVO/GN</text>
<text class="lab" x="104" y="369.88" text-anchor="end">ERG-ABS</text>
<rect x="116" y="342" width="88" height="34" fill="#cee2d5" stroke="#fff" stroke-width="1.2"/>
<text class="num" x="160" y="363.08" text-anchor="middle" fill="#111">61.0</text>
<rect x="204" y="342" width="88" height="34" fill="#96c1a5" stroke="#fff" stroke-width="1.2"/>
<text class="num" x="248" y="363.08" text-anchor="middle" fill="#111">73.3</text>
<rect x="292" y="342" width="88" height="34" fill="#ffffff" stroke="#fff" stroke-width="1.2"/>
<text class="num" x="336" y="363.08" text-anchor="middle" fill="#111">48.0</text>
<rect x="380" y="342" width="88" height="34" fill="#aaccb6" stroke="#fff" stroke-width="1.2"/>
<text class="num" x="424" y="363.08" text-anchor="middle" fill="#111">69.0</text>
<rect x="468" y="342" width="88" height="34" fill="#44905e" stroke="#fff" stroke-width="1.2"/>
<text class="num" x="512" y="363.08" text-anchor="middle" fill="#fff">91.7</text>
<rect x="556" y="342" width="88" height="34" fill="#5b9d71" stroke="#fff" stroke-width="1.2"/>
<text class="num" x="600" y="363.08" text-anchor="middle" fill="#fff">86.7</text>
<rect x="644" y="342" width="88" height="34" fill="#f6faf7" stroke="#fff" stroke-width="1.2"/>
<text class="num" x="688" y="363.08" text-anchor="middle" fill="#111">52.0</text>
<rect x="732" y="342" width="88" height="34" fill="#5fa075" stroke="#fff" stroke-width="1.2"/>
<text class="num" x="776" y="363.08" text-anchor="middle" fill="#fff">85.7</text>
<text class="lab" x="104" y="388.92" text-anchor="end">SVO/NG</text>
<text class="lab" x="104" y="403.88" text-anchor="end">ERG-ABS</text>
<rect x="116" y="376" width="88" height="34" fill="#ddebe1" stroke="#fff" stroke-width="1.2"/>
<text class="num" x="160" y="397.08" text-anchor="middle" fill="#111">57.7</text>
<rect x="204" y="376" width="88" height="34" fill="#569b6e" stroke="#fff" stroke-width="1.2"/>
<text class="num" x="248" y="397.08" text-anchor="middle" fill="#fff">87.7</text>
<rect x="292" y="376" width="88" height="34" fill="#9fc6ad" stroke="#fff" stroke-width="1.2"/>
<text class="num" x="336" y="397.08" text-anchor="middle" fill="#111">71.3</text>
<rect x="380" y="376" width="88" height="34" fill="#4f9667" stroke="#fff" stroke-width="1.2"/>
<text class="num" x="424" y="397.08" text-anchor="middle" fill="#fff">89.3</text>
<rect x="468" y="376" width="88" height="34" fill="#3e8d59" stroke="#fff" stroke-width="1.2"/>
<text class="num" x="512" y="397.08" text-anchor="middle" fill="#fff">93.0</text>
<rect x="556" y="376" width="88" height="34" fill="#68a57d" stroke="#fff" stroke-width="1.2"/>
<text class="num" x="600" y="397.08" text-anchor="middle" fill="#fff">83.7</text>
<rect x="644" y="376" width="88" height="34" fill="#bdd8c6" stroke="#fff" stroke-width="1.2"/>
<text class="num" x="688" y="397.08" text-anchor="middle" fill="#111">64.7</text>
<rect x="732" y="376" width="88" height="34" fill="#599d70" stroke="#fff" stroke-width="1.2"/>
<text class="num" x="776" y="397.08" text-anchor="middle" fill="#fff">87.0</text>
<text class="lab" x="104" y="422.92" text-anchor="end">VOS/GN</text>
<text class="lab" x="104" y="437.88" text-anchor="end">ERG-ABS</text>
<rect x="116" y="410" width="88" height="34" fill="#ffffff" stroke="#fff" stroke-width="1.2"/>
<text class="num" x="160" y="431.08" text-anchor="middle" fill="#111">45.3</text>
<rect x="204" y="410" width="88" height="34" fill="#2f844c" stroke="#fff" stroke-width="1.2"/>
<text class="num" x="248" y="431.08" text-anchor="middle" fill="#fff">96.3</text>
<rect x="292" y="410" width="88" height="34" fill="#ffffff" stroke="#fff" stroke-width="1.2"/>
<text class="num" x="336" y="431.08" text-anchor="middle" fill="#111">30.3</text>
<rect x="380" y="410" width="88" height="34" fill="#2e834b" stroke="#fff" stroke-width="1.2"/>
<text class="num" x="424" y="431.08" text-anchor="middle" fill="#fff">96.7</text>
<rect x="468" y="410" width="88" height="34" fill="#257e43" stroke="#fff" stroke-width="1.2"/>
<text class="num" x="512" y="431.08" text-anchor="middle" fill="#fff">98.7</text>
<rect x="556" y="410" width="88" height="34" fill="#237d42" stroke="#fff" stroke-width="1.2"/>
<text class="num" x="600" y="431.08" text-anchor="middle" fill="#fff">99.0</text>
<rect x="644" y="410" width="88" height="34" fill="#4a9463" stroke="#fff" stroke-width="1.2"/>
<text class="num" x="688" y="431.08" text-anchor="middle" fill="#fff">90.3</text>
<rect x="732" y="410" width="88" height="34" fill="#257e43" stroke="#fff" stroke-width="1.2"/>
<text class="num" x="776" y="431.08" text-anchor="middle" fill="#fff">98.7</text>
<text class="lab" x="104" y="456.92" text-anchor="end">VOS/NG</text>
<text class="lab" x="104" y="471.88" text-anchor="end">ERG-ABS</text>
<rect x="116" y="444" width="88" height="34" fill="#fbfcfb" stroke="#fff" stroke-width="1.2"/>
<text class="num" x="160" y="465.08" text-anchor="middle" fill="#111">51.0</text>
<rect x="204" y="444" width="88" height="34" fill="#d2e4d8" stroke="#fff" stroke-width="1.2"/>
<text class="num" x="248" y="465.08" text-anchor="middle" fill="#111">60.0</text>
<rect x="292" y="444" width="88" height="34" fill="#ffffff" stroke="#fff" stroke-width="1.2"/>
<text class="num" x="336" y="465.08" text-anchor="middle" fill="#111">37.7</text>
<rect x="380" y="444" width="88" height="34" fill="#c6ddce" stroke="#fff" stroke-width="1.2"/>
<text class="num" x="424" y="465.08" text-anchor="middle" fill="#111">62.7</text>
<rect x="468" y="444" width="88" height="34" fill="#237d42" stroke="#fff" stroke-width="1.2"/>
<text class="num" x="512" y="465.08" text-anchor="middle" fill="#fff">99.0</text>
<rect x="556" y="444" width="88" height="34" fill="#388954" stroke="#fff" stroke-width="1.2"/>
<text class="num" x="600" y="465.08" text-anchor="middle" fill="#fff">94.3</text>
<rect x="644" y="444" width="88" height="34" fill="#599d70" stroke="#fff" stroke-width="1.2"/>
<text class="num" x="688" y="465.08" text-anchor="middle" fill="#fff">87.0</text>
<rect x="732" y="444" width="88" height="34" fill="#31854d" stroke="#fff" stroke-width="1.2"/>
<text class="num" x="776" y="465.08" text-anchor="middle" fill="#fff">96.0</text>
<rect x="116" y="70" width="704" height="408" fill="none" stroke="#333" stroke-width="1"/>
<rect x="116" y="496" width="3.45" height="11" fill="#ffffff"/>
<rect x="118.75" y="496" width="3.45" height="11" fill="#fcfdfd"/>
<rect x="121.5" y="496" width="3.45" height="11" fill="#f9fcfa"/>
<rect x="124.25" y="496" width="3.45" height="11" fill="#f6faf8"/>
<rect x="127" y="496" width="3.45" height="11" fill="#f4f8f5"/>
<rect x="129.75" y="496" width="3.45" height="11" fill="#f1f7f3"/>
<rect x="132.5" y="496" width="3.45" height="11" fill="#eef5f0"/>
<rect x="135.25" y="496" width="3.45" height="11" fill="#ebf3ee"/>
<rect x="138" y="496" width="3.45" height="11" fill="#e8f2eb"/>
<rect x="140.75" y="496" width="3.45" height="11" fill="#e5f0e9"/>
<rect x="143.5" y="496" width="3.45" height="11" fill="#e3eee7"/>
<rect x="146.25" y="496" width="3.45" height="11" fill="#e0ece4"/>
<rect x="149" y="496" width="3.45" height="11" fill="#ddebe2"/>
<rect x="151.75" y="496" width="3.45" height="11" fill="#dae9df"/>
<rect x="154.5" y="496" width="3.45" height="11" fill="#d7e7dd"/>
<rect x="157.25" y="496" width="3.45" height="11" fill="#d4e6da"/>
<rect x="160" y="496" width="3.45" height="11" fill="#d2e4d8"/>
<rect x="162.75" y="496" width="3.45" height="11" fill="#cfe2d5"/>
<rect x="165.5" y="496" width="3.45" height="11" fill="#cce1d3"/>
<rect x="168.25" y="496" width="3.45" height="11" fill="#c9dfd1"/>
<rect x="171" y="496" width="3.45" height="11" fill="#c6ddce"/>
<rect x="173.75" y="496" width="3.45" height="11" fill="#c3dccc"/>
<rect x="176.5" y="496" width="3.45" height="11" fill="#c1dac9"/>
<rect x="179.25" y="496" width="3.45" height="11" fill="#bed8c7"/>
<rect x="182" y="496" width="3.45" height="11" fill="#bbd7c4"/>
<rect x="184.75" y="496" width="3.45" height="11" fill="#b8d5c2"/>
<rect x="187.5" y="496" width="3.45" height="11" fill="#b5d3bf"/>
<rect x="190.25" y="496" width="3.45" height="11" fill="#b2d2bd"/>
<rect x="193" y="496" width="3.45" height="11" fill="#b0d0bb"/>
<rect x="195.75" y="496" width="3.45" height="11" fill="#adceb8"/>
<rect x="198.5" y="496" width="3.45" height="11" fill="#aaccb6"/>
<rect x="201.25" y="496" width="3.45" height="11" fill="#a7cbb3"/>
<rect x="204" y="496" width="3.45" height="11" fill="#a4c9b1"/>
<rect x="206.75" y="496" width="3.45" height="11" fill="#a1c7ae"/>
<rect x="209.5" y="496" width="3.45" height="11" fill="#9fc6ac"/>
<rect x="212.25" y="496" width="3.45" height="11" fill="#9cc4a9"/>
<rect x="215" y="496" width="3.45" height="11" fill="#99c2a7"/>
<rect x="217.75" y="496" width="3.45" height="11" fill="#96c1a5"/>
<rect x="220.5" y="496" width="3.45" height="11" fill="#93bfa2"/>
<rect x="223.25" y="496" width="3.45" height="11" fill="#90bda0"/>
<rect x="226" y="496" width="3.45" height="11" fill="#8ebc9d"/>
<rect x="228.75" y="496" width="3.45" height="11" fill="#8bba9b"/>
<rect x="231.5" y="496" width="3.45" height="11" fill="#88b898"/>
<rect x="234.25" y="496" width="3.45" height="11" fill="#85b796"/>
<rect x="237" y="496" width="3.45" height="11" fill="#82b594"/>
<rect x="239.75" y="496" width="3.45" height="11" fill="#7fb391"/>
<rect x="242.5" y="496" width="3.45" height="11" fill="#7db28f"/>
<rect x="245.25" y="496" width="3.45" height="11" fill="#7ab08c"/>
<rect x="248" y="496" width="3.45" height="11" fill="#77ae8a"/>
<rect x="250.75" y="496" width="3.45" height="11" fill="#74ad87"/>
<rect x="253.5" y="496" width="3.45" height="11" fill="#71ab85"/>
<rect x="256.25" y="496" width="3.45" height="11" fill="#6ea982"/>
<rect x="259" y="496" width="3.45" height="11" fill="#6ca780"/>
<rect x="261.75" y="496" width="3.45" height="11" fill="#69a67e"/>
<rect x="264.5" y="496" width="3.45" height="11" fill="#66a47b"/>
<rect x="267.25" y="496" width="3.45" height="11" fill="#63a279"/>
<rect x="270" y="496" width="3.45" height="11" fill="#60a176"/>
<rect x="272.75" y="496" width="3.45" height="11" fill="#5d9f74"/>
<rect x="275.5" y="496" width="3.45" height="11" fill="#5b9d71"/>
<rect x="278.25" y="496" width="3.45" height="11" fill="#589c6f"/>
<rect x="281" y="496" width="3.45" height="11" fill="#559a6c"/>
<rect x="283.75" y="496" width="3.45" height="11" fill="#52986a"/>
<rect x="286.5" y="496" width="3.45" height="11" fill="#4f9768"/>
<rect x="289.25" y="496" width="3.45" height="11" fill="#4c9565"/>
<rect x="292" y="496" width="3.45" height="11" fill="#4a9363"/>
<rect x="294.75" y="496" width="3.45" height="11" fill="#479260"/>
<rect x="297.5" y="496" width="3.45" height="11" fill="#44905e"/>
<rect x="300.25" y="496" width="3.45" height="11" fill="#418e5b"/>
<rect x="303" y="496" width="3.45" height="11" fill="#3e8d59"/>
<rect x="305.75" y="496" width="3.45" height="11" fill="#3b8b56"/>
<rect x="308.5" y="496" width="3.45" height="11" fill="#398954"/>
<rect x="311.25" y="496" width="3.45" height="11" fill="#368752"/>
<rect x="314" y="496" width="3.45" height="11" fill="#33864f"/>
<rect x="316.75" y="496" width="3.45" height="11" fill="#30844d"/>
<rect x="319.5" y="496" width="3.45" height="11" fill="#2d824a"/>
<rect x="322.25" y="496" width="3.45" height="11" fill="#2a8148"/>
<rect x="325" y="496" width="3.45" height="11" fill="#287f45"/>
<rect x="327.75" y="496" width="3.45" height="11" fill="#257d43"/>
<rect x="330.5" y="496" width="3.45" height="11" fill="#227c40"/>
<rect x="333.25" y="496" width="3.45" height="11" fill="#1f7a3e"/>
<rect x="116" y="496" width="220" height="11" fill="none" stroke="#888" stroke-width="0.6"/>
<text class="small" x="116" y="524">50</text>
<text class="small" x="336" y="524" text-anchor="end">100</text>
<text class="small" x="226" y="524" text-anchor="middle">Accuracy</text>
<rect x="600" y="500" width="220" height="3.2" rx="1.6" fill="#d95f02" opacity="0.82"/>
<text class="small" x="600" y="524">0</text>
<text class="small" x="820" y="524" text-anchor="end">100</text>
<text class="small" x="710" y="524" text-anchor="middle">BAD parse rate</text>
</svg>